<?xml version="1.0" encoding="utf-8"?>
<!-- Generator: Adobe Illustrator 24.3.0, SVG Export Plug-In . SVG Version: 6.00 Build 0)  -->
<svg version="1.1" id="Слой_1" xmlns="http://www.w3.org/2000/svg" xmlns:xlink="http://www.w3.org/1999/xlink" x="0px" y="0px"
	 viewBox="0 0 595.28 841.89" style="enable-background:new 0 0 595.28 841.89;" xml:space="preserve">
<style type="text/css">
	.st0{fill:#AC1737;}
</style>
<g>
	<path class="st0" d="M138.51,492.4c-39.2,0-71.09-31.89-71.09-71.09c0-39.2,31.89-71.1,71.09-71.1c9.42,0,17.05,7.63,17.05,17.05
		c0,9.42-7.63,17.05-17.05,17.05c-20.4,0-37,16.6-37,37s16.6,37,37,37s37-16.6,37-37V308.39c0-9.42,7.63-17.05,17.05-17.05
		c9.42,0,17.05,7.63,17.05,17.05v112.92C209.61,460.51,177.72,492.4,138.51,492.4z"/>
	<path class="st0" d="M511.04,492.4c-9.42,0-17.05-7.63-17.05-17.05v-54.05c0-20.4-16.6-37-37-37c-20.4,0-37,16.6-37,37
		c0,20.4,16.6,37,37,37c9.42,0,17.05,7.63,17.05,17.05c0,9.42-7.63,17.05-17.05,17.05c-39.2,0-71.1-31.89-71.1-71.1
		c0-39.2,31.89-71.09,71.1-71.09s71.1,31.89,71.1,71.09v54.05C528.09,484.77,520.45,492.4,511.04,492.4z"/>
	<path class="st0" d="M243.7,551.28c-9.42,0-17.05-7.63-17.05-17.05V421.31c0-39.2,31.89-71.09,71.09-71.09
		c39.2,0,71.1,31.89,71.1,71.09c0,39.2-31.89,71.1-71.1,71.1c-9.42,0-17.05-7.63-17.05-17.05c0-9.42,7.63-17.05,17.05-17.05
		c20.4,0,37-16.6,37-37c0-20.4-16.6-37-37-37c-20.4,0-37,16.6-37,37v112.92C260.75,543.65,253.12,551.28,243.7,551.28z"/>
</g>
</svg>
